<svg xmlns="http://www.w3.org/2000/svg" xmlns:xlink="http://www.w3.org/1999/xlink" xml:space="preserve" version="1.0" style="shape-rendering:geometricPrecision;text-rendering:geometricPrecision;image-rendering:optimizeQuality;" viewBox="0 0 10000 12500" x="0px" y="0px" fill-rule="evenodd" clip-rule="evenodd"><defs><style type="text/css">
   
    .fil0 {fill:black;fill-rule:nonzero}
   
  </style></defs><g><path class="fil0" d="M4222 2066c-72,0 -132,60 -132,132 0,73 60,132 132,132 519,0 1037,0 1556,0 72,0 132,-59 132,-132 0,-72 -59,-132 -132,-132 -519,0 -1037,0 -1556,0zm91 -200l0 -324c0,-55 45,-100 100,-100l1174 0c55,0 100,45 100,100l0 324 91 0c182,0 332,150 332,332 0,183 -150,333 -332,333l-91 0 0 735c1180,311 2003,1377 2003,2602 0,1487 -1203,2690 -2690,2690 -1487,0 -2690,-1202 -2690,-2690 0,-1226 823,-2291 2003,-2602l0 -735 -91 0c-183,0 -332,-150 -332,-333 0,-183 149,-332 332,-332l91 0zm1174 0l0 -224 -974 0 0 224 974 0zm0 665l-974 0 0 691c321,-59 653,-59 974,0l0 -691zm-387 3288l804 479c62,-130 97,-276 97,-430 0,-514 -390,-945 -901,-996l0 947zm700 649l-802 -478 -800 477c189,253 486,402 802,402 316,0 611,-149 800,-401zm-1705 -172l805 -480 0 -944c-511,51 -901,482 -901,996 0,153 35,298 96,428zm905 1961l570 -987 -1139 0 569 987zm685 -1187l288 -499c-225,312 -586,498 -973,498 -388,0 -749,-187 -975,-500l290 501 1370 0zm411 -712l283 -490 -282 -490c66,150 104,316 104,490 0,174 -38,341 -105,490zm398 -689l580 -1004 -1159 0 579 1004zm-809 -1004l-1370 0 -287 498c225,-310 584,-495 969,-496 388,0 749,183 976,497l-288 -499zm-1600 0l-1158 0 579 1004 579 -1004zm-464 1203l283 491c-67,-150 -105,-316 -105,-491 0,-174 37,-339 104,-488l-282 488zm2589 693l-295 509 1159 0 -580 -1003 -284 494zm-410 709l-625 1082c762,-53 1454,-453 1883,-1082l-1258 0zm-975 1082l-625 -1082 -1258 1c429,628 1120,1028 1883,1081zm-740 -1282l-579 -1003 -579 1003 1158 0zm-694 -1202l-630 -1091c-161,330 -251,700 -251,1091 0,391 90,761 251,1091l630 -1091zm-449 -1403l1259 0 624 -1081c-762,53 -1454,453 -1883,1081zm1489 0l1138 0 -569 -986 -569 986zm1368 0l1259 0c-429,-628 -1121,-1028 -1883,-1081l624 1081zm1440 312l-630 1091 630 1091c161,-330 251,-700 251,-1091 0,-391 -90,-762 -251,-1091z"/></g><text x="0" y="10015" fill="#000000" font-size="5px" font-weight="bold" font-family="'Helvetica Neue', Helvetica, Arial-Unicode, Arial, Sans-serif">Created by Ragal Kartidev</text><text x="0" y="10020" fill="#000000" font-size="5px" font-weight="bold" font-family="'Helvetica Neue', Helvetica, Arial-Unicode, Arial, Sans-serif">from the Noun Project</text></svg>