<svg width="89" height="72" viewBox="0 0 89 72" fill="none" xmlns="http://www.w3.org/2000/svg">
<rect x="52.2381" y="35.6318" width="22.4308" height="4" transform="rotate(9.30264 52.2381 35.6318)" fill="black"/>
<path d="M43.4563 15.15C44.9963 15.15 46.2796 15.645 47.3063 16.635C48.333 17.625 48.8463 18.9633 48.8463 20.65C48.8463 22.5567 48.278 24.0967 47.1413 25.27C46.0046 26.4433 44.648 27.03 43.0713 27.03C42.0446 27.03 41.1646 26.8467 40.4313 26.48C39.698 26.1133 39.0013 25.5267 38.3413 24.72L33.6113 28.68L38.9463 44.465C39.2763 45.3817 39.6246 46.115 39.9913 46.665C40.3946 47.215 40.8713 47.765 41.4213 48.315C41.8246 48.7183 42.0996 49.0483 42.2463 49.305C42.4296 49.525 42.5213 49.8 42.5213 50.13C42.5213 50.7167 42.2463 51.175 41.6963 51.505C41.183 51.835 40.2663 52 38.9463 52H31.7413C29.9446 52 28.6063 51.615 27.7263 50.845C26.883 50.0383 26.1863 48.7183 25.6363 46.885L22.8863 37.645L21.2913 38.965L19.4763 45.51C19.3296 45.9867 19.2563 46.445 19.2563 46.885C19.2563 47.325 19.3113 47.6917 19.4213 47.985C19.568 48.2783 19.7696 48.59 20.0263 48.92C20.3563 49.3967 20.5213 49.7817 20.5213 50.075C20.5213 50.1483 20.4846 50.3317 20.4113 50.625C20.2646 51.1383 19.9346 51.505 19.4213 51.725C18.908 51.9083 18.138 52 17.1113 52H4.18629C3.41629 52 2.82962 51.8717 2.42629 51.615C1.98629 51.3583 1.76629 51.01 1.76629 50.57C1.76629 50.35 1.82129 50.1117 1.93129 49.855C2.07796 49.4517 2.31629 49.14 2.64629 48.92C2.97629 48.7 3.17796 48.5717 3.25129 48.535C3.83796 48.1683 4.31462 47.8017 4.68129 47.435C5.04796 47.0317 5.35962 46.39 5.61629 45.51L12.3263 21.805C12.473 21.3283 12.5463 20.87 12.5463 20.43C12.5463 20.0267 12.473 19.6967 12.3263 19.44C12.2163 19.1467 12.0513 18.8167 11.8313 18.45C11.5013 17.9733 11.3363 17.5883 11.3363 17.295C11.3363 17.185 11.373 16.9833 11.4463 16.69C11.593 16.2133 11.9046 15.8833 12.3813 15.7C12.8946 15.48 13.6646 15.37 14.6913 15.37H27.6163C28.3863 15.37 28.973 15.4983 29.3763 15.755C29.8163 15.975 30.0363 16.305 30.0363 16.745C30.0363 16.9283 29.9813 17.1667 29.8713 17.46C29.7613 17.7167 29.5963 17.955 29.3763 18.175C29.193 18.3583 29.0096 18.505 28.8263 18.615C28.6796 18.6883 28.5696 18.7617 28.4963 18.835C27.9096 19.165 27.433 19.5317 27.0663 19.935C26.6996 20.3383 26.388 20.9617 26.1313 21.805L23.8213 30L38.3963 17.405C39.3496 16.5983 40.2113 16.03 40.9813 15.7C41.7513 15.3333 42.5763 15.15 43.4563 15.15ZM84.2981 15.37C85.5081 15.37 86.4798 15.7 87.2131 16.36C87.9464 16.9833 88.3131 17.79 88.3131 18.78C88.3131 20.1733 87.6348 21.5483 86.2781 22.905L62.4081 46.72H68.8981C69.5948 46.72 70.1998 46.5917 70.7131 46.335C71.2631 46.0417 71.8498 45.5467 72.4731 44.85L75.7731 41.22C76.3598 40.5967 76.9098 40.1567 77.4231 39.9C77.9731 39.6067 78.6331 39.46 79.4031 39.46C80.2098 39.46 80.8698 39.6433 81.3831 40.01C81.8964 40.3767 82.1531 40.9267 82.1531 41.66C82.1531 41.9533 82.0981 42.3017 81.9881 42.705L80.3931 48.26C79.9898 49.6533 79.4031 50.625 78.6331 51.175C77.8631 51.725 76.7448 52 75.2781 52H50.6381C49.0614 52 47.8698 51.6883 47.0631 51.065C46.2931 50.405 45.9081 49.525 45.9081 48.425C45.9081 47.765 46.0731 47.1233 46.4031 46.5C46.7698 45.84 47.3381 45.1067 48.1081 44.3L70.4931 20.65H65.3781C64.6814 20.65 64.0581 20.7967 63.5081 21.09C62.9948 21.3467 62.4264 21.8233 61.8031 22.52L58.5031 26.15C57.9164 26.7733 57.3481 27.2317 56.7981 27.525C56.2848 27.7817 55.6431 27.91 54.8731 27.91C54.0664 27.91 53.4064 27.7267 52.8931 27.36C52.3798 26.9933 52.1231 26.4433 52.1231 25.71C52.1231 25.38 52.1781 25.0317 52.2881 24.665L53.8831 19.11C54.2864 17.7167 54.8731 16.745 55.6431 16.195C56.4131 15.645 57.5314 15.37 58.9981 15.37H84.2981Z" fill="#EAE6DC"/>
<rect x="2.9895" y="27.5647" width="50.324" height="4" transform="rotate(9.30264 2.9895 27.5647)" fill="black"/>
<rect x="74.0614" y="39.2065" width="10.9935" height="4" transform="rotate(9.30264 74.0614 39.2065)" fill="black"/>
</svg>
